<svg width="28" height="28" viewBox="0 0 32 32" xmlns="http://www.w3.org/2000/svg">
<path fill="white" d="M16.001 3.2c-7.069 0-12.8 5.731-12.8 12.8 0 2.251.591 4.446 1.712 6.373L3.2 28.8l6.611-1.735a12.75 12.75 0 0 0 6.19 1.578h.006c7.068 0 12.8-5.731 12.8-12.8s-5.732-12.643-12.806-12.643zm7.499 18.098c-.313.883-1.818 1.688-2.508 1.755-.678.068-1.352.339-4.542-.945-3.842-1.545-6.256-5.303-6.446-5.548-.19-.245-1.543-2.05-1.543-3.912s.978-2.771 1.325-3.148c.347-.377.755-.47 1.007-.47.246 0 .491.002.706.013.226.011.53-.086.828.632.313.756 1.064 2.611 1.157 2.801.093.19.155.412.031.658-.124.246-.186.4-.372.617-.186.217-.39.485-.558.652-.186.186-.379.388-.163.762.217.377.964 1.591 2.07 2.577 1.423 1.269 2.623 1.663 3 1.85.377.186.598.155.818-.093.22-.248.943-1.1 1.194-1.477.252-.377.502-.312.847-.187.345.124 2.194 1.035 2.57 1.222.377.186.628.279.72.435.093.155.093.9-.22 1.783z"/>
</svg>
